<?xml version="1.0" encoding="utf-8"?>
<!-- Generator: Adobe Illustrator 22.0.1, SVG Export Plug-In . SVG Version: 6.00 Build 0)  -->
<svg version="1.0" id="Layer_1" xmlns="http://www.w3.org/2000/svg" xmlns:xlink="http://www.w3.org/1999/xlink" x="0px" y="0px"
	 viewBox="0 0 1181.2 683.7" style="enable-background:new 0 0 1181.2 683.7;" xml:space="preserve">
<style type="text/css">
	.st0{fill-rule:evenodd;clip-rule:evenodd;fill:#FFFFFF;}
</style>
<path class="st0" d="M590.7,0.2c182.5,0,365,0,547.4,0c7.7,0,15.4,0.4,23.1-0.1c13.9-0.9,20.5,5.1,19.9,19.1c-0.3,5.5,0,11,0,16.5
	c0,203.4,0,406.7,0,610.1c0,39.7,1,37.9-37.8,37.9c-369.4,0-738.7,0-1108.1,0c-39,0-35.2,1.9-35.2-36c0-204.5-0.1-408.9,0-613.4
	C0.2-2-4.1,0.2,33.4,0.2C219.2,0.2,404.9,0.2,590.7,0.2z M590,16c-176,0-352,0-528,0c-8.8,0-17.6,0.4-26.4,0
	C21.7,15.5,15.4,21.9,16,35.8c0.3,6.6,0,13.2,0,19.8c0,190.3,0,380.6,0,570.9c0,40.8-2.8,40.3,39,40.3c357.5-0.1,715,0,1072.4,0
	c7.7,0,15.4-0.1,23.1-0.3c9.4-0.3,13.8-5.7,14.3-14.6c0.3-5.5,0.4-11,0.4-16.5c0-195.8,0.1-391.6,0-587.4c0-31.4-0.4-31.4-30.7-31.8
	c-7.7-0.1-15.4,0-23.1,0C937.6,16,763.8,16,590,16z"/>
<path class="st0" d="M975.3,342.8c0,35.1,0.1,70.2-0.2,105.4c0,2.9-2,8.2-3.7,8.4c-5.6,0.8-6.9-4.1-7-8.5
	c-0.4-21.9-0.4-43.9-0.8-65.8c-0.1-4.1-0.1-9.4-5.2-10c-1.9-0.2-5.3,3.7-6.5,6.5c-9.8,22-19.3,44.2-28.9,66.4
	c-1.7,3.9-2.7,9.1-7.7,9.5c-5.7,0.5-5.9-5.3-7.5-9c-9-21.2-17.8-42.5-26.9-63.7c-1.6-3.8-3.5-10-8.1-9.2c-6.8,1.1-5.4,8.3-5.5,13.2
	c-0.4,20.8-0.3,41.7-0.8,62.5c-0.1,2.8-2,7.3-4,7.9c-6.6,1.9-6.7-4.5-6.8-8c-0.6-34-0.9-68-0.9-102c0-36.2,0.3-72.4,0.7-108.6
	c0-3.9-0.4-9.9,5.5-9.6c5.4,0.3,5.7,5.9,5.7,10.2c0.3,21.9,0.4,43.9,0.7,65.8c0.1,4.3,0.1,10.4,4.6,11.1c4.7,0.7,6.2-5.5,7.9-9.3
	c9.5-22.2,18.7-44.5,28.2-66.6c1.2-2.8,3.5-6.5,6-7.2c5.5-1.4,7.1,3.9,8.8,7.8c10.1,23.1,19.8,46.4,30,69.5c1.2,2.7,4.2,4.6,6.4,6.8
	c1.4-2.8,3.9-5.5,4-8.3c0.5-19.7,0.5-39.5,0.8-59.2c0.1-4.4,0.3-8.8,0.6-13.1c0.2-3.4,1.6-6.8,5.1-7.4c4.3-0.7,5,3,5.2,6.1
	c0.4,7.7,0.6,15.3,0.6,23c0.1,28.5,0,57.1,0,85.6C975.6,342.8,975.5,342.8,975.3,342.8z M952.4,339.6c-8.7-21.1-17.8-43.3-27.2-65.5
	c-2-4.8-3.8-11.2-10.8-10.3c-4.6,0.6-6.3,5.4-8.3,9.2c-31.4,59.1-31.6,64.4-5.6,125.7c1.7,4,3.3,8.1,5.1,12.1
	c2.2,4.8,2.9,11.6,9.2,12.4c7.2,0.9,7.9-6.3,9.9-11c7.3-17.1,14.5-34.3,21.4-51.7C948.5,354.5,949.9,348.1,952.4,339.6z"/>
<path class="st0" d="M823.7,286.3c0.7,16.1-3,30.9-13.5,43.1c-7.8,9-8.2,16.6-0.5,25.9c11,13.2,14.8,29,14,46.2
	c-1.9,39.5-31.1,63.7-71.1,58.7c-34.8-4.3-57.5-39.2-50.9-75.4c3.1-17,21.3-28.3,19.6-43.7c-1.5-13.8-17-24.7-19.5-40.6
	c-4-24.7,1.9-46.4,21-62.4c20.3-17,43.9-19.7,67.8-7.9C813.6,241.3,823.1,261.4,823.7,286.3z M760.7,334.5
	c36.1,0,50.6-13.6,50.5-47.5c-0.1-32-20.1-53.1-49.9-52.6c-27.8,0.5-46.8,21.4-47.4,52.1C713.3,318.4,729,334.4,760.7,334.5z
	 M811.2,396.7c-0.5-35.2-15.6-46.3-61.7-45.6c-20.9,0.3-35.7,19.5-35.6,46c0.1,31.3,21.6,55.4,49.1,54.7
	C791.7,451.2,811.6,428.4,811.2,396.7z"/>
<path class="st0" d="M93.4,342.6c0-35.2-0.1-70.4,0.1-105.6c0-4.2,1.2-9.5,6.9-9.2c1.6,0.1,3.6,4.9,4.1,7.8
	c0.8,4.3,0.7,8.8,0.5,13.2c-1.5,38.4,5.3,34.9,34.5,34.9c3.3,0,6.6,0,9.9,0c32,0,36,2.8,35.1-34c-0.1-5.5,0.1-11,0.6-16.5
	c0.3-3.3,2-7.2,5.9-5.9c2.3,0.7,4.1,4.5,5,7.3c1,3,0.7,6.5,0.7,9.8c0,64.9,0.1,129.8,0,194.6c0,4.4-0.4,8.8-1.2,13.1
	c-0.4,1.9-2,4.5-3.6,5c-3.9,1.2-6.4-2.1-6.6-5.1c-0.7-9.8-0.5-19.8-1-29.6c-1-19.1-2.3-20.2-21.1-21.4c-3.3-0.2-6.6,0-9.9-0.1
	c-44.3-0.7-44.3-0.7-48.6,44.7c-0.2,2.2-0.2,4.5-0.9,6.5c-0.7,1.9-2.1,4.7-3.6,5c-3.9,0.7-6.3-2.7-6.4-5.7
	c-0.2-36.3-0.2-72.6-0.2-108.8C93.6,342.6,93.5,342.6,93.4,342.6z M184.3,344.1c0-10.9,0-21.9,0-32.8c0-10.2-4-16.8-15.2-16.8
	c-16.4,0-32.8,0-49.2,0.1c-9.3,0.1-14.1,5.3-14.3,14.3c-0.4,16.4-0.5,32.8-0.4,49.2c0.2,31.3,0.3,31.3,30.5,31.8c1.1,0,2.2,0,3.3,0
	C189.6,389.5,184.4,394.9,184.3,344.1z"/>
<path class="st0" d="M264.5,340.7c-1.8-5.6-3.7-13-6.5-20.1c-9.4-23.5-19.4-46.6-28.5-70.2c-2.9-7.5-11.9-18.1-2-23.1
	c7.8-4,9.4,9.4,13.6,15.3c13,18.3,62.3,17.8,75.1-0.9c2.5-3.6,3.9-7.9,6.2-11.6c1.8-2.7,4.7-5,8-3.1c3.4,1.9,3.2,5.7,2,8.8
	c-8.5,21.4-15.8,43.5-26.2,64c-14.5,28.5-16.4,55.2-0.6,84.2c11,20.1,17.6,42.6,26.1,64c1.2,3,2.5,6.7-1.1,8.8c-5,3-7.7-0.8-10-4.6
	c-5-8.2-7.1-19.4-19.6-19.8c-17.5-0.6-35.3-3.1-52.3,2c-9.1,2.7-9,14.5-14.9,20.9c-1.3,1.4-3.9,2.7-5.6,2.4
	c-3.4-0.7-5.7-3.8-4.4-7.2c9.1-23.5,18.7-46.9,27.9-70.4C256.7,367.8,262.8,356,264.5,340.7z M275.9,421c4.4,0,8.7,0.1,13.1,0
	c11.4-0.3,16.6-6.1,12.2-16.8c-6.5-16-9.3-33.7-21.8-46.8c-16.6,10.1-15.3,29.8-23.8,44.3c-1.1,1.8-1.6,4.1-2.2,6.2
	c-2.2,8.2,1.3,12.5,9.5,13.1C267.2,421.3,271.6,421,275.9,421z M281.6,263.3c-7.7,0-10.9-0.2-14.2,0c-14.1,1.3-17.7,5.6-12,18.7
	c6.6,15.5,8,33.9,23.2,45c14.8-12.9,16.4-32.2,23.4-48.7c3-7-0.9-12.7-8.7-14.1C288,263.3,282.6,263.4,281.6,263.3z"/>
<path class="st0" d="M1010.2,343.9c0-31.8-0.3-63.7,0.1-95.5c0.3-23,0.8-23.2,24.8-23.7c14.3-0.3,28.5,0.1,42.8,0.4
	c3,0.1,7.1,1,6.5,5.3c-0.5,3.5-4,4.5-7.3,4.6c-13.2,0.4-26.4,0.2-39.5,1.1c-15.7,1-15.2,13.2-15.3,24.3c-0.2,17,2.9,20.8,16.4,23
	c15.2,2.6,31.9-6,45.6,6.6c-14.1,8.3-29.6,3-44.4,4c-12.5,0.9-17.5,6.5-17.6,18.5c-0.2,15.6,3.5,21.6,17,22.8
	c14.2,1.2,28.5,0.9,42.7,1.4c3.7,0.1,6.3,2.5,6.4,6.1c0.1,3.8-3,5.6-6.3,5.7c-14.2,0.5-28.6,0.1-42.7,1.3c-13.9,1.2-17.2,7-17,22.6
	c0.2,12.7,6.6,17.5,18.5,17.6c13.1,0.1,26.3,0.5,39.4,1.2c1.4,0.1,3.6,2.6,3.9,4.2c0.2,1.3-2,4.1-3.3,4.2
	c-13.1,0.8-26.3,0.7-39.4,1.7c-15.8,1.2-19,5.6-19.1,24c-0.1,18.3,2.9,22.4,19.2,23.5c14.2,0.9,28.5,0.9,42.7,1.7
	c1.4,0.1,3.4,2.9,3.6,4.6c0.2,1.1-2.4,3.7-3.8,3.7c-20.8,0.3-41.7,0.6-62.5,0.4c-10.8-0.1-11.3-8.4-11.3-16.4
	C1010.2,409.8,1010.2,376.8,1010.2,343.9C1010.2,343.9,1010.2,343.9,1010.2,343.9z"/>
<path class="st0" d="M531,351.4c-8.9,0-16.6,0.1-24.2,0c-6.2-0.1-10.6,2.8-12.9,8.3c-2.8,6.7-1.5,12.9,3.6,18.1
	c5.6,5.8,13.1,7.7,20.4,10.1c10.4,3.4,21.4,5.7,30.9,10.9c22.9,12.6,23,43.1,0.9,56.3c-17.1,10.2-53,6.7-68.5-6.8
	c-2.6-2.3-4-5.4-1-8.1c1.2-1.1,4.2-1.6,5.7-1c7,3,13.7,7,20.8,9.6c9.4,3.5,19.2,4.3,29,0.5c10-3.9,17.1-10,17.5-21.4
	c0.4-10.2-6.2-16.4-14.7-19.8c-10.2-4.1-21-6.5-31.3-10.3c-25.3-9.3-30.9-18.8-24.5-44.8c1.9-7.9,1.5-14.2-0.4-21.9
	c-6.1-24.7-0.9-33.7,22.7-42.8c11.2-4.3,23-7.4,34.1-11.9c8.6-3.5,14.5-10.1,13.9-20.2c-0.7-11.6-8.3-17.7-18.5-20.3
	c-15.7-4-30.4-0.5-44.3,7.6c-2.6,1.5-5.9,4.1-8.5,0c-2.1-3.3-0.3-6.5,2.2-8.3c19.5-14,40.8-15.5,62.4-6.7
	c13.3,5.4,19.9,16.7,19.5,31.5c-0.4,13.7-7.8,22.7-19.7,27.9c-8,3.5-16.7,5.4-24.9,8.4c-7.2,2.7-14.5,5.3-21,9.2
	c-5.9,3.6-8.9,9.7-7.2,17c1.7,7.2,6.7,12,13.8,11.9c14.1-0.3,28.5,3.4,42.4-1.9c7.8-2.9,9.8,2,9.6,8c-0.2,6.2,0.8,14.6-9.8,11.9
	C542.6,350.7,536.3,350.1,531,351.4z"/>
<path class="st0" d="M403.7,227.5c0.8,0.6,1.9,1.1,2.2,1.9c1,3.1,2.7,6.4,2.2,9.3c-5.8,35.3,14.3,60.6,33.1,86.4
	c13.1,17.9,13.1,17.7,0.6,34.2c-20,26.4-39.8,52.9-34,89.3c0.4,2.6-2.1,8-3.9,8.2c-5.5,0.8-7.7-4-7.1-8.4
	c5.6-40.1-14.4-69.5-40.2-96.1c-7.1-7.4-7-12.7,0.4-19c2.5-2.1,4.6-4.7,6.6-7.3c19.4-25.4,39.5-50.3,33.3-86
	C395.3,231.6,400,226.3,403.7,227.5z M403.8,389.9c1.8-1.2,3.7-2.3,5.2-3.7c29.7-28.3,31-48.6,5.2-80.7c-0.7-0.8-1.4-1.7-2-2.5
	c-5.8-7.5-11.3-8.8-18.3-0.9c-28.2,31.5-28.7,43.9-2.2,78.1c2,2.6,3.9,5.2,6.3,7.3C399.4,388.7,401.8,389.1,403.8,389.9z"/>
<path class="st0" d="M637.6,276.9c0,7.7,0,15.4,0,23.1c0.1,30,0.1,30,30.3,36.3c3.4,0.7,6.7,1.9,7.2,5.3c0.8,6.1-4.5,6.4-8.6,7.3
	c-3.2,0.7-6.6,0.7-9.8,0.7c-13.8,0.3-19.3,7.4-19,21c0.4,22,0.1,44,0,66c0,5.5-0.4,11-1.2,16.4c-0.2,1.5-2.7,3.6-4.3,3.7
	c-1.5,0.1-4.4-2-4.5-3.3c-0.8-10.9-1.3-21.8-1.5-32.8c-0.2-15.4,0.3-30.8-0.2-46.2c-0.6-20.9-0.9-20.9-21.7-24.9
	c-4.3-0.8-8.7-1.2-12.8-2.5c-1.4-0.5-3-3.3-2.9-4.9c0.1-1.7,1.9-4,3.5-4.7c9.9-4.1,24,3.1,30.5-7.9c7.5-12.7,2.8-27.9,3.3-42
	c0.6-17.6,0.4-35.2,0.6-52.7c0-3.4,1.5-6.8,5-7.1c3.8-0.3,5.4,3.1,5.5,6.5c0.1,14.3,0.1,28.6,0.1,42.8
	C637.2,276.9,637.4,276.9,637.6,276.9z"/>
</svg>
